 <svg  version="1.0" xmlns="http://www.w3.org/2000/svg"  width="225.000000pt" height="225.000000pt" viewBox="0 0 225.000000 225.000000"  preserveAspectRatio="xMidYMid meet">  <g transform="translate(0.000000,225.000000) scale(0.100000,-0.100000)" fill="#276520" stroke="none"> <path d="M1095 2070 c-403 -36 -749 -263 -868 -568 -26 -69 -57 -245 -45 -257 7 -8 169 85 172 98 2 7 11 43 20 82 52 218 355 460 651 520 222 45 513 -5 730 -125 262 -146 392 -395 330 -633 -17 -66 -70 -175 -124 -256 -21 -31 -44 -74 -51 -95 -15 -47 -8 -174 14 -256 9 -30 13 -56 10 -59 -3 -3 -69 27 -146 68 l-141 74 -66 -13 c-168 -32 -156 -26 -197 -88 -22 -31 -43 -63 -47 -70 -11 -17 50 -10 173 19 l85 21 248 -106 c136 -58 252 -106 258 -106 6 0 6 7 1 18 -47 90 -75 257 -62 370 6 61 15 85 54 150 69 115 114 209 132 281 22 87 15 251 -14 341 -57 173 -213 348 -402 452 -198 109 -465 160 -715 138z"/> <path d="M560 1343 c-231 -39 -430 -171 -510 -338 -29 -60 -35 -83 -38 -161 -5 -112 10 -171 72 -274 58 -96 71 -155 55 -246 -6 -38 -18 -87 -26 -108 -7 -22 -12 -40 -10 -42 1 -2 77 29 167 68 l165 70 80 -16 c98 -20 276 -21 366 -2 149 32 298 113 385 209 26 29 63 86 83 127 34 71 36 80 36 180 0 97 -2 110 -31 170 -110 231 -367 372 -669 369 -55 -1 -111 -4 -125 -6z"/> </g> </svg> 