 <svg  version="1.0" xmlns="http://www.w3.org/2000/svg"  width="225.000000pt" height="225.000000pt" viewBox="0 0 225.000000 225.000000"  preserveAspectRatio="xMidYMid meet">  <g transform="translate(0.000000,225.000000) scale(0.100000,-0.100000)" fill="#26a269" stroke="none"> <path d="M724 1980 c-48 -31 -57 -65 -58 -216 l-1 -134 -147 -3 c-130 -2 -150 -4 -175 -23 -65 -48 -63 -25 -63 -701 0 -600 0 -613 20 -633 43 -43 65 -30 220 125 l145 145 403 0 c445 0 455 1 492 62 19 32 20 49 20 481 0 488 0 484 -57 523 -26 18 -54 19 -433 22 l-405 3 3 117 c3 152 7 174 38 203 l26 24 536 3 c295 2 552 0 571 -3 18 -4 44 -18 57 -32 l24 -26 0 -446 c0 -427 -1 -447 -20 -478 -11 -18 -21 -34 -22 -35 -2 0 -69 -4 -151 -7 -191 -8 -198 -26 -9 -26 150 0 173 7 209 62 17 25 18 64 18 478 0 425 -1 452 -19 478 -39 58 -25 57 -633 57 -542 0 -559 -1 -589 -20z m-52 -673 l3 -292 5 293 5 293 396 -1 c220 0 407 -4 421 -9 56 -21 58 -34 58 -356 l0 -296 -411 3 -411 3 -30 33 c-38 44 -46 36 -9 -9 l29 -34 420 -3 c390 -3 420 -4 416 -20 -1 -9 -5 -76 -7 -148 -5 -142 -13 -166 -59 -185 -19 -8 -153 -12 -433 -13 l-405 -1 -143 -143 c-127 -127 -147 -143 -173 -140 l-29 3 -3 627 -2 627 24 28 c24 28 25 28 173 33 81 3 151 4 156 2 4 -2 8 -135 9 -295z"/> </g> </svg> 